<?xml version="1.0" encoding="utf-8"?>
<svg id="master-artboard" viewBox="0 0 2800 2800" version="1.1" xmlns="http://www.w3.org/2000/svg" x="0px" y="0px" width="2800px" height="2800px" enable-background="new 0 0 2800 2800">

<g transform="matrix(1, 0, 0, 1, 0, 0)">
		<g id="XMLID_62_">
			<path fill="#CCCCCC" d="M308.8,2111.1c-0.8,0-1.5-0.7-1.5-1.5c0-46.7,4.4-70.4,8.6-93.4c4.2-22.8,8.5-46.4,8.5-92.8&#10;&#9;&#9;&#9;&#9;s-4.3-70-8.5-92.8c-4.2-22.9-8.6-46.7-8.6-93.4c0-46.7,4.4-70.4,8.6-93.4c4.2-22.8,8.5-46.4,8.5-92.8c0-0.8,0.7-1.5,1.5-1.5&#10;&#9;&#9;&#9;&#9;s1.5,0.7,1.5,1.5c0,46.7-4.4,70.4-8.6,93.4c-4.2,22.8-8.5,46.4-8.5,92.8c0,46.4,4.3,70,8.5,92.8c4.2,22.9,8.6,46.7,8.6,93.4&#10;&#9;&#9;&#9;&#9;s-4.4,70.4-8.6,93.4c-4.2,22.8-8.5,46.4-8.5,92.8C310.3,2110.4,309.6,2111.1,308.8,2111.1z"/>
		</g>
		<path id="XMLID_18_" fill="#EB6A8A" d="M302.2,1568.2l16.6-28.8c3.2-5.5,11.1-5.5,14.2,0l16.6,28.8c3.2,5.5-0.8,12.3-7.1,12.3&#10;&#9;&#9;&#9;h-33.2C303,1580.6,299,1573.7,302.2,1568.2z"/>
		<path fill="#00A188" d="M483.8,1331.2c0,109-70.7,219.8-157.9,219.8S168,1440.3,168,1331.2c0-109,70.7-175,157.9-175&#10;&#9;&#9;&#9;S483.8,1222.2,483.8,1331.2z"/>
		<g>
			<g>
				<path fill="#FFFFFF" d="M194.9,1335.2c-2.2,0-4-1.8-4-4c0-17.6,2.1-34.4,6.1-50c0.6-2.1,2.7-3.4,4.9-2.9&#10;&#9;&#9;&#9;&#9;&#9;c2.1,0.6,3.4,2.7,2.9,4.9c-3.9,14.9-5.9,31-5.9,47.9C198.9,1333.4,197.1,1335.2,194.9,1335.2z"/>
			</g>
			<g>
				<path fill="#FFFFFF" d="M209.5,1261.9c-0.6,0-1.1-0.1-1.6-0.4c-2-0.9-2.9-3.3-2-5.3c6.4-14.2,14.8-26.9,25-37.6&#10;&#9;&#9;&#9;&#9;&#9;c24.1-25.4,57.9-39.5,95.1-39.5c2.2,0,4,1.8,4,4s-1.8,4-4,4c-34.9,0-66.6,13.1-89.2,37c-9.6,10.1-17.5,22-23.5,35.4&#10;&#9;&#9;&#9;&#9;&#9;C212.4,1261,211,1261.9,209.5,1261.9z"/>
			</g>
		</g>
	</g><g id="XMLID_2_" transform="matrix(1, 0, 0, 1, 0, 0)">
			<path fill="#CCCCCC" d="M2384.2,1619.3c-0.8,0-1.5-0.7-1.5-1.5c0-46.7,4.4-70.4,8.6-93.4c4.2-22.8,8.5-46.4,8.5-92.8&#10;&#9;&#9;&#9;&#9;s-4.3-70-8.5-92.8c-4.2-22.9-8.6-46.7-8.6-93.4c0-46.7,4.4-70.4,8.6-93.4c4.2-22.8,8.5-46.4,8.5-92.8c0-0.8,0.7-1.5,1.5-1.5&#10;&#9;&#9;&#9;&#9;s1.5,0.7,1.5,1.5c0,46.7-4.4,70.4-8.6,93.4c-4.2,22.8-8.5,46.4-8.5,92.8c0,46.4,4.3,70,8.5,92.8c4.2,22.9,8.6,46.7,8.6,93.4&#10;&#9;&#9;&#9;&#9;s-4.4,70.4-8.6,93.4c-4.2,22.8-8.5,46.4-8.5,92.8C2385.7,1618.6,2385,1619.3,2384.2,1619.3z"/>
		</g><path id="XMLID_1_" fill="#EB6A8A" d="M2377.6,1076.4l16.6-28.8c3.2-5.5,11.1-5.5,14.2,0l16.6,28.8c3.2,5.5-0.8,12.3-7.1,12.3&#10;&#9;&#9;&#9;h-33.2C2378.4,1088.8,2374.4,1081.9,2377.6,1076.4z" transform="matrix(1, 0, 0, 1, 0, 0)"/><path fill="#EB6A8A" d="M2559.2,839.5c0,109-70.7,219.8-157.9,219.8s-157.9-110.8-157.9-219.8s70.7-175,157.9-175&#10;&#9;&#9;&#9;S2559.2,730.4,2559.2,839.5z" transform="matrix(1, 0, 0, 1, 0, 0)"/><g transform="matrix(1, 0, 0, 1, 0, 0)">
				<path fill="#FFFFFF" d="M2270.3,843.5c-2.2,0-4-1.8-4-4c0-17.6,2.1-34.4,6.1-50c0.6-2.1,2.7-3.4,4.9-2.9&#10;&#9;&#9;&#9;&#9;&#9;c2.1,0.6,3.4,2.7,2.9,4.9c-3.9,14.9-5.9,31-5.9,47.9C2274.3,841.7,2272.5,843.5,2270.3,843.5z"/>
			</g><path fill="#FFFFFF" d="M2284.9,770.1c-0.6,0-1.1-0.1-1.6-0.4c-2-0.9-2.9-3.3-2-5.3c6.4-14.2,14.8-26.9,25-37.6&#10;&#9;&#9;&#9;&#9;&#9;c24.1-25.4,57.9-39.5,95-39.5c2.2,0,4,1.8,4,4s-1.8,4-4,4c-34.9,0-66.6,13.1-89.2,37c-9.6,10.1-17.5,22-23.5,35.4&#10;&#9;&#9;&#9;&#9;&#9;C2287.9,769.2,2286.4,770.1,2284.9,770.1z" transform="matrix(1, 0, 0, 1, 0, 0)"/><g id="XMLID_4_" transform="matrix(1, 0, 0, 1, 0, 0)">
			<path fill="#CCCCCC" d="M992,1264.6c-0.8,0-1.5-0.7-1.5-1.5c0-46.7,4.4-70.4,8.6-93.4c4.2-22.8,8.5-46.4,8.5-92.8&#10;&#9;&#9;&#9;&#9;c0-46.4-4.3-70-8.5-92.8c-4.2-22.9-8.6-46.7-8.6-93.4c0-46.7,4.4-70.4,8.6-93.4c4.2-22.8,8.5-46.4,8.5-92.8&#10;&#9;&#9;&#9;&#9;c0-0.8,0.7-1.5,1.5-1.5s1.5,0.7,1.5,1.5c0,46.7-4.4,70.4-8.6,93.4c-4.2,22.8-8.5,46.4-8.5,92.8c0,46.4,4.3,70,8.5,92.8&#10;&#9;&#9;&#9;&#9;c4.2,22.9,8.6,46.7,8.6,93.4c0,46.7-4.4,70.4-8.6,93.4c-4.2,22.8-8.5,46.4-8.5,92.8C993.5,1263.9,992.8,1264.6,992,1264.6z"/>
		</g><path id="XMLID_3_" fill="#EB6A8A" d="M985.4,721.7L1002,693c3.2-5.5,11.1-5.5,14.2,0l16.6,28.8c3.2,5.5-0.8,12.3-7.1,12.3h-33.2&#10;&#9;&#9;&#9;C986.1,734.1,982.2,727.2,985.4,721.7z" transform="matrix(1, 0, 0, 1, 0, 0)"/><path fill="#FFCC4E" d="M1167,484.7c0,109-70.7,219.8-157.9,219.8S851.2,593.8,851.2,484.7s70.7-175,157.9-175&#10;&#9;&#9;&#9;S1167,375.7,1167,484.7z" transform="matrix(1, 0, 0, 1, 0, 0)"/><g transform="matrix(1, 0, 0, 1, 0, 0)">
				<path fill="#FFFFFF" d="M878.1,488.7c-2.2,0-4-1.8-4-4c0-17.6,2.1-34.4,6.1-50c0.6-2.1,2.7-3.4,4.9-2.9c2.1,0.6,3.4,2.7,2.9,4.9&#10;&#9;&#9;&#9;&#9;&#9;c-3.9,14.9-5.9,31-5.9,47.9C882.1,486.9,880.3,488.7,878.1,488.7z"/>
			</g><path fill="#FFFFFF" d="M892.7,415.4c-0.6,0-1.1-0.1-1.6-0.4c-2-0.9-2.9-3.3-2-5.3c6.4-14.2,14.8-26.9,25-37.6&#10;&#9;&#9;&#9;&#9;&#9;c24.1-25.4,57.9-39.5,95.1-39.5c2.2,0,4,1.8,4,4s-1.8,4-4,4c-34.9,0-66.6,13.1-89.2,37c-9.6,10.1-17.5,22-23.5,35.4&#10;&#9;&#9;&#9;&#9;&#9;C895.6,414.5,894.2,415.4,892.7,415.4z" transform="matrix(1, 0, 0, 1, 0, 0)"/><path d="M 1260.400024 2585.600098 A 426.700012 48.700001 0 0 1 833.700012 2634.300098 A 426.700012 48.700001 0 0 1 407 2585.600098 A 426.700012 48.700001 0 0 1 833.700012 2536.900097 A 426.700012 48.700001 0 0 1 1260.400024 2585.600098 Z" opacity="0.1" transform="matrix(1, 0, 0, 1, 0, 0)"/><path d="M 2279.399963 2585.600098 A 426.700012 48.700001 0 0 1 1852.699951 2634.300098 A 426.700012 48.700001 0 0 1 1425.999939 2585.600098 A 426.700012 48.700001 0 0 1 1852.699951 2536.900097 A 426.700012 48.700001 0 0 1 2279.399963 2585.600098 Z" opacity="0.1" transform="matrix(1, 0, 0, 1, 0, 0)"/><path fill="#FFA686" d="M1542.2,1159.6l-5.2,2.8c-10.8,6-24.4,2-30.3-8.8l-36-65.2c-6-10.8-2-24.4,8.8-30.3l5.2-2.8&#10;&#9;&#9;&#9;c10.8-6,24.4-2,30.3,8.8l36,65.2C1556.9,1140,1552.9,1153.6,1542.2,1159.6z" transform="matrix(1, 0, 0, 1, 0, 0)"/><path fill="#FFA686" d="M2075.2,1890.5l-5.8-1.2c-12.1-2.6-19.7-14.5-17.1-26.5l15.7-72.8c2.6-12.1,14.5-19.7,26.5-17.1l5.8,1.2&#10;&#9;&#9;&#9;c12.1,2.6,19.7,14.5,17.1,26.5l-15.7,72.8C2099.2,1885.4,2087.3,1893.1,2075.2,1890.5z" transform="matrix(1, 0, 0, 1, 0, 0)"/><path d="M 1940 2468.10009765625 L 1944 2567.10009765625 L 1983.5999755859375 2567.10009765625 L 1990.4000244140625 2468.10009765625 Z" fill="#FFA686" transform="matrix(1, 0, 0, 1, 0, 0)"/><path d="M 1937.699951171875 2523.39990234375 L 1852.699951171875 2565.699951171875 L 1852.699951171875 2585.60009765625 L 1994.9000244140625 2585.60009765625 L 1994.9000244140625 2537.5 Z" fill="#343454" transform="matrix(1, 0, 0, 1, 0, 0)"/><path d="M 1779.300048828125 2468.10009765625 L 1783.199951171875 2567.10009765625 L 1822.9000244140625 2567.10009765625 L 1829.5999755859375 2468.10009765625 Z" fill="#FFA686" transform="matrix(1, 0, 0, 1, 0, 0)"/><path d="M 1740.800048828125 1756.699951171875 L 1763.9000244140625 2498.199951171875 L 1841.699951171875 2498.199951171875 L 1877.5999755859375 1975.199951171875 L 1933.800048828125 2498.199951171875 L 1994.800048828125 2498.199951171875 L 2009 1782.699951171875 L 1933.800048828125 1696.800048828125 Z" fill="#343454" transform="matrix(1, 0, 0, 1, 0, 0)"/><path d="M 1961.0999755859375 1324.300048828125 L 1961.0999755859375 1237.5 L 1897.699951171875 1250.300048828125 L 1894.300048828125 1315 L 1869.5999755859375 1314.300048828125 L 1869.5999755859375 1467.300048828125 L 1982.0999755859375 1467.300048828125 L 1982.0999755859375 1329.699951171875 Z" fill="#FFA686" transform="matrix(1, 0, 0, 1, 0, 0)"/><path fill="#EB6A8A" d="M2102,1396.8c-7.7-24.6-27.6-43.5-52.6-49.9l-77.5-19.9c0,0.1,0,0.1,0,0.2c0,25.9-21.7,46.7-47.9,45.2&#10;&#9;&#9;&#9;c-22-1.3-40.1-18.6-42.4-40.5c-0.6-6.1,0-11.9,1.5-17.3l-87.3-2.5l-139.4-20l-116.2-191.3l-52.8,29.4l105,194.4&#10;&#9;&#9;&#9;c11.1,20.6,29.4,36.5,51.4,44.7l130.7,48.5l-33.7,338.8l268.3,26l25.3-284.1l65.4,127.9l-44.5,198.7l58.6,10.7l49.2-197.7&#10;&#9;&#9;&#9;c4.3-17.3,3.7-35.4-1.6-52.4L2102,1396.8z" transform="matrix(1, 0, 0, 1, 0, 0)"/><path fill="#FFA686" d="M2029.5,1156.2c17.8-73.8,10.1-100.5,10.1-100.5l-202.2-13.6c0,0-55.8,190.9,12.1,219.6&#10;&#9;&#9;&#9;c54.3,22.9,121.6,0,157.9-53.2c16.3,6.5,42.2-1.5,44.3-25.7C2053.1,1165.7,2039.4,1158.9,2029.5,1156.2z" transform="matrix(1, 0, 0, 1, 0, 0)"/><path fill="#343454" d="M1791.7,951.3c0,0-4.9,96,54,110.4c58.9,14.3,105.6,14.3,120,20.4s0,37,0,37s33.2,26.4,33.2,57.5&#10;&#9;&#9;&#9;c0,0,8.3-20.9,30.7-20.4c0,0,19.1-28.5,19.1-83.9c0-58.8-25.8-88.9-86.5-93.4C1896.5,974.1,1819.8,975.5,1791.7,951.3z" transform="matrix(1, 0, 0, 1, 0, 0)"/><path d="M 1777 2523.39990234375 L 1691.9000244140625 2565.699951171875 L 1691.9000244140625 2585.60009765625 L 1834.199951171875 2585.60009765625 L 1834.199951171875 2537.5 Z" fill="#343454" transform="matrix(1, 0, 0, 1, 0, 0)"/><path fill="#FFFFFF" d="M1509.6,1111.3v-46.1c0-12.7,4.1-25.1,11.8-35.3l56.2-74.9h-148.9l56.2,74.9&#10;&#9;&#9;&#9;&#9;c7.6,10.2,11.8,22.5,11.8,35.3v46.1c0,8.7-5.1,16.7-13.1,20.3l-20.9,9.5h80.9l-20.9-9.5C1514.7,1128,1509.6,1120,1509.6,1111.3z" transform="matrix(1, 0, 0, 1, 0, 0)"/><path fill="#EB6A8A" d="M1453.9,974.9h98.4l-36.4,48.4c-6.4,8.6-19.3,8.6-25.7,0L1453.9,974.9z" transform="matrix(1, 0, 0, 1, 0, 0)"/><path fill="#FFA686" d="M1189.9,1272.5l4.9,3.2c10.3,6.8,24.1,3.9,30.9-6.3l41-62.2c6.8-10.3,3.9-24.1-6.3-30.9l-4.9-3.2&#10;&#9;&#9;&#9;c-10.3-6.8-24.1-3.9-30.9,6.3l-41,62.2C1176.8,1251.8,1179.6,1265.7,1189.9,1272.5z" transform="matrix(1, 0, 0, 1, 0, 0)"/><path fill="#FFA686" d="M594.9,1890.5l5.8-1.2c12.1-2.6,19.7-14.5,17.1-26.5l-15.7-72.8c-2.6-12.1-14.5-19.7-26.5-17.1l-5.8,1.2&#10;&#9;&#9;&#9;c-12.1,2.6-19.7,14.5-17.1,26.5l15.7,72.8C570.9,1885.4,582.8,1893.1,594.9,1890.5z" transform="matrix(1, 0, 0, 1, 0, 0)"/><path d="M 727.7999877929688 2468.10009765625 L 723.9000244140625 2567.10009765625 L 684.2000122070312 2567.10009765625 L 677.4000244140625 2468.10009765625 Z" fill="#FFA686" transform="matrix(1, 0, 0, 1, 0, 0)"/><path d="M 730.0999755859375 2523.39990234375 L 815.0999755859375 2565.699951171875 L 815.0999755859375 2585.60009765625 L 672.9000244140625 2585.60009765625 L 672.9000244140625 2537.5 Z" fill="#343454" transform="matrix(1, 0, 0, 1, 0, 0)"/><path d="M 888.5999755859375 2468.10009765625 L 884.5999755859375 2567.10009765625 L 845 2567.10009765625 L 838.2000122070312 2468.10009765625 Z" fill="#FFA686" transform="matrix(1, 0, 0, 1, 0, 0)"/><path d="M 927.0999755859375 1756.699951171875 L 904 2498.199951171875 L 826.0999755859375 2498.199951171875 L 790.2000122070312 1975.199951171875 L 734.0999755859375 2498.199951171875 L 673 2498.199951171875 L 658.7999877929688 1782.699951171875 L 734.0999755859375 1696.800048828125 Z" fill="#343454" transform="matrix(1, 0, 0, 1, 0, 0)"/><path d="M 706.7000122070312 1324.300048828125 L 706.7000122070312 1237.5 L 770.0999755859375 1250.300048828125 L 773.5999755859375 1315 L 798.2000122070312 1314.300048828125 L 798.2000122070312 1467.300048828125 L 685.7000122070312 1467.300048828125 L 685.7000122070312 1329.699951171875 Z" fill="#FFA686" transform="matrix(1, 0, 0, 1, 0, 0)"/><path fill="#FFCC4E" d="M565.9,1396.9c7.8-24.6,27.7-43.5,52.7-49.9l77.4-19.9c0,0.1,0,0.1,0,0.2c0,25.9,21.7,46.7,47.9,45.2&#10;&#9;&#9;&#9;c22-1.3,40.1-18.6,42.4-40.5c0.6-6.1,0-11.9-1.5-17.3l67.9-1.9c12.8-0.4,25.6,1.5,37.8,5.6l188,62.3l115.8-165l52.8,29.4&#10;&#9;&#9;&#9;l-125,199.5c-8.7,13.9-24.6,21.4-40.8,19.3l-185.6-23.6l31.5,316.3l-268.3,26l-25.3-284.1L568,1626.5l44.5,198.7l-58.6,10.7&#10;&#9;&#9;&#9;l-48.8-196.2c-4.5-18.3-4-37.4,1.7-55.4L565.9,1396.9z" transform="matrix(1, 0, 0, 1, 0, 0)"/><path fill="#FFA686" d="M638.3,1156.2c-17.8-73.8-10.1-100.5-10.1-100.5l202.2-13.6c0,0,55.8,190.9-12.1,219.6&#10;&#9;&#9;&#9;c-54.3,22.9-121.6,0-157.9-53.2c-16.3,6.5-42.2-1.5-44.3-25.7C614.7,1165.7,628.4,1158.9,638.3,1156.2z" transform="matrix(1, 0, 0, 1, 0, 0)"/><path fill="#343454" d="M833.2,1008.8c8.4,13.2,12.2,58.8-37.4,50.2c-59.7-10.3-86,6.3-97.6,22.2c-9.2,12.5,3.9,37.8,3.9,37.8&#10;&#9;&#9;&#9;s-33.2,26.4-33.2,57.5c0,0-8.3-20.9-30.7-20.4c0,0-19.1-28.5-19.1-83.9c0-58.8,26.7-82.1,86.5-93.4&#10;&#9;&#9;&#9;C791.4,962.8,819.4,987.2,833.2,1008.8z" transform="matrix(1, 0, 0, 1, 0, 0)"/><path d="M 890.9000244140625 2523.39990234375 L 975.9000244140625 2565.699951171875 L 975.9000244140625 2585.60009765625 L 833.7000122070312 2585.60009765625 L 833.7000122070312 2537.5 Z" fill="#343454" transform="matrix(1, 0, 0, 1, 0, 0)"/><path fill="#FFFFFF" d="M1240.2,1246v-46.1c0-12.7,4.1-25.1,11.8-35.3l56.2-74.9h-148.9l56.2,74.9c7.6,10.2,11.8,22.5,11.8,35.3&#10;&#9;&#9;&#9;&#9;v46.1c0,8.7-5.1,16.7-13.1,20.3l-20.9,9.5h80.9l-20.9-9.5C1245.3,1262.7,1240.2,1254.7,1240.2,1246z" transform="matrix(1, 0, 0, 1, 0, 0)"/><path fill="#EB6A8A" d="M1184.5,1109.6h98.4l-36.4,48.4c-6.4,8.6-19.3,8.6-25.7,0L1184.5,1109.6z" transform="matrix(1, 0, 0, 1, 0, 0)"/><path d="M 126.600002 216.100006 A 16.799999 16.799999 0 0 1 109.800003 232.900005 A 16.799999 16.799999 0 0 1 93.000004 216.100006 A 16.799999 16.799999 0 0 1 109.800003 199.300007 A 16.799999 16.799999 0 0 1 126.600002 216.100006 Z" fill="#00A188" transform="matrix(1, 0, 0, 1, 0, 0)"/><path d="M 1260.299999 734.099976 A 16.799999 16.799999 0 0 1 1243.5 750.899975 A 16.799999 16.799999 0 0 1 1226.700001 734.099976 A 16.799999 16.799999 0 0 1 1243.5 717.299976 A 16.799999 16.799999 0 0 1 1260.299999 734.099976 Z" fill="#EB6A8A" transform="matrix(1, 0, 0, 1, 0, 0)"/><path d="M 2347.900097 372.700012 A 16.799999 16.799999 0 0 1 2331.100098 389.500011 A 16.799999 16.799999 0 0 1 2314.300098 372.700012 A 16.799999 16.799999 0 0 1 2331.100098 355.900013 A 16.799999 16.799999 0 0 1 2347.900097 372.700012 Z" fill="#FFCC4E" transform="matrix(1, 0, 0, 1, 0, 0)"/><path d="M 1527.600048 1814.800049 A 16.799999 16.799999 0 0 1 1510.800049 1831.600048 A 16.799999 16.799999 0 0 1 1494.00005 1814.800049 A 16.799999 16.799999 0 0 1 1510.800049 1798.00005 A 16.799999 16.799999 0 0 1 1527.600048 1814.800049 Z" fill="#EB6A8A" transform="matrix(1, 0, 0, 1, 0, 0)"/><path d="M 273.500011 2228 A 16.799999 16.799999 0 0 1 256.700012 2244.799999 A 16.799999 16.799999 0 0 1 239.900013 2228 A 16.799999 16.799999 0 0 1 256.700012 2211.200001 A 16.799999 16.799999 0 0 1 273.500011 2228 Z" fill="#00A188" transform="matrix(1, 0, 0, 1, 0, 0)"/><path d="M 2552.600048 1270.5 A 16.799999 16.799999 0 0 1 2535.800049 1287.299999 A 16.799999 16.799999 0 0 1 2519.00005 1270.5 A 16.799999 16.799999 0 0 1 2535.800049 1253.700001 A 16.799999 16.799999 0 0 1 2552.600048 1270.5 Z" fill="#EB6A8A" transform="matrix(1, 0, 0, 1, 0, 0)"/><path d="M 2068.600048 707.400024 A 16.799999 16.799999 0 0 1 2051.800049 724.200024 A 16.799999 16.799999 0 0 1 2035.00005 707.400024 A 16.799999 16.799999 0 0 1 2051.800049 690.600025 A 16.799999 16.799999 0 0 1 2068.600048 707.400024 Z" fill="#00A188" transform="matrix(1, 0, 0, 1, 0, 0)"/><path d="M 432.500011 1108.800049 A 16.799999 16.799999 0 0 1 415.700012 1125.600048 A 16.799999 16.799999 0 0 1 398.900013 1108.800049 A 16.799999 16.799999 0 0 1 415.700012 1092.00005 A 16.799999 16.799999 0 0 1 432.500011 1108.800049 Z" fill="#FFCC4E" transform="matrix(1, 0, 0, 1, 0, 0)"/><path d="M 471.399994 529.799988 H 502.199993 V 560.599987 H 471.399994 V 529.799988 Z" fill="#EB6A8A" transform="matrix(1, 0, 0, 1, 0, 0)"/><path d="M 1478.599976 168.5 H 1509.399975 V 199.299999 H 1478.599976 V 168.5 Z" fill="#00A5D3" transform="matrix(1, 0, 0, 1, 0, 0)"/><path d="M 2676.300049 854.900024 H 2707.100048 V 885.700024 H 2676.300049 V 854.900024 Z" fill="#00A5D3" transform="matrix(1, 0, 0, 1, 0, 0)"/><path d="M 2610.399902 2180.399902 H 2641.199902 V 2211.199902 H 2610.399902 V 2180.399902 Z" fill="#00A5D3" transform="matrix(1, 0, 0, 1, 0, 0)"/><path d="M 1076.699951 1681.400024 H 1107.49995 V 1712.200024 H 1076.699951 V 1681.400024 Z" fill="#00A188" transform="matrix(1, 0, 0, 1, 0, 0)"/><path d="M 1562.199951 2229.399902 H 1592.99995 V 2260.199902 H 1562.199951 V 2229.399902 Z" fill="#FFCC4E" transform="matrix(1, 0, 0, 1, 0, 0)"/><path d="M 196.300003 1541.099976 H 227.100002 V 1571.899975 H 196.300003 V 1541.099976 Z" fill="#00A5D3" transform="matrix(1, 0, 0, 1, 0, 0)"/><path fill="#FFCC4E" d="M359.1,349.4c-10.2,10.2-21.3,9.6-30.1,9.2c-8.3-0.5-12.9-0.5-17.8,4.4c-4.9,4.9-4.9,9.5-4.4,17.8&#10;&#9;&#9;&#9;c0.5,8.9,1.1,19.9-9.2,30.1c-10.2,10.2-21.3,9.6-30.1,9.2c-8.3-0.5-12.9-0.5-17.8,4.4l-11.4-11.4c10.2-10.2,21.3-9.6,30.1-9.2&#10;&#9;&#9;&#9;c8.3,0.5,12.9,0.5,17.8-4.4c4.9-4.9,4.9-9.5,4.4-17.8c-0.5-8.9-1.1-19.9,9.2-30.1c10.2-10.2,21.3-9.6,30.1-9.2&#10;&#9;&#9;&#9;c8.3,0.5,12.9,0.5,17.8-4.4c4.9-4.9,4.9-9.5,4.4-17.8c-0.5-8.9-1.1-19.9,9.2-30.1l11.4,11.4c-4.9,4.9-4.9,9.5-4.4,17.8&#10;&#9;&#9;&#9;C368.7,328.1,369.3,339.2,359.1,349.4z" transform="matrix(1, 0, 0, 1, 0, 0)"/><path fill="#00A5D3" d="M2612.9,427.9c-10.2,10.2-21.3,9.6-30.1,9.2c-8.3-0.5-12.9-0.5-17.8,4.4c-4.9,4.9-4.9,9.5-4.4,17.8&#10;&#9;&#9;&#9;c0.5,8.9,1.1,19.9-9.2,30.1c-10.2,10.2-21.3,9.6-30.1,9.2c-8.3-0.5-12.9-0.5-17.8,4.4l-11.4-11.4c10.2-10.2,21.3-9.6,30.1-9.2&#10;&#9;&#9;&#9;c8.3,0.5,12.9,0.5,17.8-4.4c4.9-4.9,4.9-9.5,4.4-17.8c-0.5-8.9-1.1-19.9,9.2-30.1c10.2-10.2,21.3-9.6,30.1-9.2&#10;&#9;&#9;&#9;c8.3,0.5,12.9,0.5,17.8-4.4c4.9-4.9,4.9-9.5,4.4-17.8c-0.5-8.9-1.1-19.9,9.2-30.1l11.4,11.4c-4.9,4.9-4.9,9.5-4.4,17.8&#10;&#9;&#9;&#9;C2622.5,406.6,2623.1,417.7,2612.9,427.9z" transform="matrix(1, 0, 0, 1, 0, 0)"/><path fill="#EB6A8A" d="M1161.1,2124.9c-10.2,10.2-21.3,9.6-30.1,9.2c-8.3-0.5-12.9-0.5-17.8,4.4c-4.9,4.9-4.9,9.5-4.4,17.8&#10;&#9;&#9;&#9;c0.5,8.9,1.1,19.9-9.2,30.1c-10.2,10.2-21.3,9.6-30.1,9.2c-8.3-0.5-12.9-0.5-17.8,4.4l-11.4-11.4c10.2-10.2,21.3-9.6,30.1-9.2&#10;&#9;&#9;&#9;c8.3,0.5,12.9,0.5,17.8-4.4c4.9-4.9,4.9-9.5,4.4-17.8c-0.5-8.9-1.1-19.9,9.2-30.1c10.2-10.2,21.3-9.6,30.1-9.2&#10;&#9;&#9;&#9;c8.3,0.5,12.9,0.5,17.8-4.4c4.9-4.9,4.9-9.5,4.4-17.8c-0.5-8.9-1.1-19.9,9.2-30.1l11.4,11.4c-4.9,4.9-4.9,9.5-4.4,17.8&#10;&#9;&#9;&#9;C1170.7,2103.6,1171.3,2114.6,1161.1,2124.9z" transform="matrix(1, 0, 0, 1, 0, 0)"/><path fill="#00A5D3" d="M649,758.8c10.2-10.2,21.3-9.6,30.1-9.2c8.3,0.5,12.9,0.5,17.8-4.4c4.9-4.9,4.9-9.5,4.4-17.8&#10;&#9;&#9;&#9;c-0.5-8.9-1.1-19.9,9.2-30.1c10.2-10.2,21.3-9.6,30.1-9.2c8.3,0.5,12.9,0.5,17.8-4.4l11.4,11.4c-10.2,10.2-21.3,9.6-30.1,9.2&#10;&#9;&#9;&#9;c-8.3-0.5-12.9-0.5-17.8,4.4c-4.9,4.9-4.9,9.5-4.4,17.8c0.5,8.9,1.1,19.9-9.2,30.1c-10.2,10.2-21.3,9.6-30.1,9.2&#10;&#9;&#9;&#9;c-8.3-0.5-12.9-0.5-17.8,4.4c-4.9,4.9-4.9,9.5-4.4,17.8c0.5,8.9,1.1,19.9-9.2,30.1l-11.4-11.4c4.9-4.9,4.9-9.5,4.4-17.8&#10;&#9;&#9;&#9;C639.3,780,638.7,769,649,758.8z" transform="matrix(1, 0, 0, 1, 0, 0)"/><path fill="#00A188" d="M2260.6,2235.8c10.2-10.2,21.3-9.6,30.1-9.2c8.3,0.5,12.9,0.5,17.8-4.4c4.9-4.9,4.9-9.5,4.4-17.8&#10;&#9;&#9;&#9;c-0.5-8.9-1.1-19.9,9.2-30.1s21.3-9.6,30.1-9.2c8.3,0.5,12.9,0.5,17.8-4.4l11.4,11.4c-10.2,10.2-21.3,9.6-30.1,9.2&#10;&#9;&#9;&#9;c-8.3-0.5-12.9-0.5-17.8,4.4c-4.9,4.9-4.9,9.5-4.4,17.8c0.5,8.9,1.1,19.9-9.2,30.1c-10.2,10.2-21.3,9.6-30.1,9.2&#10;&#9;&#9;&#9;c-8.3-0.5-12.9-0.5-17.8,4.4c-4.9,4.9-4.9,9.5-4.4,17.8c0.5,8.9,1.1,19.9-9.2,30.1l-11.4-11.4c4.9-4.9,4.9-9.5,4.4-17.8&#10;&#9;&#9;&#9;C2251,2257.1,2250.4,2246.1,2260.6,2235.8z" transform="matrix(1, 0, 0, 1, 0, 0)"/><path fill="#00A188" d="M1433.8,672.4c10.2-10.2,21.3-9.6,30.1-9.2c8.3,0.5,12.9,0.5,17.8-4.4c4.9-4.9,4.9-9.5,4.4-17.8&#10;&#9;&#9;&#9;c-0.5-8.9-1.1-19.9,9.2-30.1c10.2-10.2,21.3-9.6,30.1-9.2c8.3,0.5,12.9,0.5,17.8-4.4l11.4,11.4c-10.2,10.2-21.3,9.6-30.1,9.2&#10;&#9;&#9;&#9;c-8.3-0.5-12.9-0.5-17.8,4.4c-4.9,4.9-4.9,9.5-4.4,17.8c0.5,8.9,1.1,19.9-9.2,30.1c-10.2,10.2-21.3,9.6-30.1,9.2&#10;&#9;&#9;&#9;c-8.3-0.5-12.9-0.5-17.8,4.4c-4.9,4.9-4.9,9.5-4.4,17.8c0.5,8.9,1.1,19.9-9.2,30.1l-11.4-11.4c4.9-4.9,4.9-9.5,4.4-17.8&#10;&#9;&#9;&#9;C1424.1,693.6,1423.5,682.6,1433.8,672.4z" transform="matrix(1, 0, 0, 1, 0, 0)"/><path fill="#EB6A8A" d="M1939.5,297.9c10.2-10.2,21.3-9.6,30.1-9.2c8.3,0.5,12.9,0.5,17.8-4.4c4.9-4.9,4.9-9.5,4.4-17.8&#10;&#9;&#9;&#9;c-0.5-8.9-1.1-19.9,9.2-30.1s21.3-9.6,30.1-9.2c8.3,0.5,12.9,0.5,17.8-4.4l11.4,11.4c-10.2,10.2-21.3,9.6-30.1,9.2&#10;&#9;&#9;&#9;c-8.3-0.5-12.9-0.5-17.8,4.4s-4.9,9.5-4.4,17.8c0.5,8.9,1.1,19.9-9.2,30.1c-10.2,10.2-21.3,9.6-30.1,9.2&#10;&#9;&#9;&#9;c-8.3-0.5-12.9-0.5-17.8,4.4c-4.9,4.9-4.9,9.5-4.4,17.8c0.5,8.9,1.1,19.9-9.2,30.1l-11.4-11.4c4.9-4.9,4.9-9.5,4.4-17.8&#10;&#9;&#9;&#9;C1929.8,319.2,1929.2,308.1,1939.5,297.9z" transform="matrix(1, 0, 0, 1, 0, 0)"/><path fill="#FFCC4E" d="M135.8,1926.4c10.2-10.2,21.3-9.6,30.1-9.2c8.3,0.5,12.9,0.5,17.8-4.4c4.9-4.9,4.9-9.5,4.4-17.8&#10;&#9;&#9;&#9;c-0.5-8.9-1.1-19.9,9.2-30.1c10.2-10.2,21.3-9.6,30.1-9.2c8.3,0.5,12.9,0.5,17.8-4.4l11.4,11.4c-10.2,10.2-21.3,9.6-30.1,9.2&#10;&#9;&#9;&#9;c-8.3-0.5-12.9-0.5-17.8,4.4s-4.9,9.5-4.4,17.8c0.5,8.9,1.1,19.9-9.2,30.1c-10.2,10.2-21.3,9.6-30.1,9.2&#10;&#9;&#9;&#9;c-8.3-0.5-12.9-0.5-17.8,4.4c-4.9,4.9-4.9,9.5-4.4,17.8c0.5,8.9,1.1,19.9-9.2,30.1l-11.4-11.4c4.9-4.9,4.9-9.5,4.4-17.8&#10;&#9;&#9;&#9;C126.2,1947.6,125.6,1936.6,135.8,1926.4z" transform="matrix(1, 0, 0, 1, 0, 0)"/><path fill="#EB6A8A" d="M228.8,915.6c-10.2-10.2-9.6-21.3-9.2-30.1c0.5-8.3,0.5-12.9-4.4-17.8c-4.9-4.9-9.5-4.9-17.8-4.4&#10;&#9;&#9;&#9;c-8.9,0.5-19.9,1.1-30.1-9.2c-10.2-10.2-9.6-21.3-9.2-30.1c0.5-8.3,0.5-12.9-4.4-17.8l11.4-11.4c10.2,10.2,9.6,21.3,9.2,30.1&#10;&#9;&#9;&#9;c-0.5,8.3-0.5,12.9,4.4,17.8c4.9,4.9,9.5,4.9,17.8,4.4c8.9-0.5,19.9-1.1,30.1,9.2c10.2,10.2,9.6,21.3,9.2,30.1&#10;&#9;&#9;&#9;c-0.5,8.3-0.5,12.9,4.4,17.8c4.9,4.9,9.5,4.9,17.8,4.4c8.9-0.5,19.9-1.1,30.1,9.2l-11.4,11.4c-4.9-4.9-9.5-4.9-17.8-4.4&#10;&#9;&#9;&#9;C250.1,925.3,239.1,925.9,228.8,915.6z" transform="matrix(1, 0, 0, 1, 0, 0)"/><path fill="#00A188" d="M2238.3,1209.9c-10.2-10.2-9.6-21.3-9.2-30.1c0.5-8.3,0.5-12.9-4.4-17.8c-4.9-4.9-9.5-4.9-17.8-4.4&#10;&#9;&#9;&#9;c-8.9,0.5-19.9,1.1-30.1-9.2s-9.6-21.3-9.2-30.1c0.5-8.3,0.5-12.9-4.4-17.8l11.4-11.4c10.2,10.2,9.6,21.3,9.2,30.1&#10;&#9;&#9;&#9;c-0.5,8.3-0.5,12.9,4.4,17.8c4.9,4.9,9.5,4.9,17.8,4.4c8.9-0.5,19.9-1.1,30.1,9.2c10.2,10.2,9.6,21.3,9.2,30.1&#10;&#9;&#9;&#9;c-0.5,8.3-0.5,12.9,4.4,17.8c4.9,4.9,9.5,4.9,17.8,4.4c8.9-0.5,19.9-1.1,30.1,9.2l-11.4,11.4c-4.9-4.9-9.5-4.9-17.8-4.4&#10;&#9;&#9;&#9;C2259.5,1219.6,2248.5,1220.2,2238.3,1209.9z" transform="matrix(1, 0, 0, 1, 0, 0)"/><path fill="#FFCC4E" d="M1784,775.7c-10.2-10.2-9.6-21.3-9.2-30.1c0.5-8.3,0.5-12.9-4.4-17.8c-4.9-4.9-9.5-4.9-17.8-4.4&#10;&#9;&#9;&#9;c-8.9,0.5-19.9,1.1-30.1-9.2c-10.2-10.2-9.6-21.3-9.2-30.1c0.5-8.3,0.5-12.9-4.4-17.8l11.4-11.4c10.2,10.2,9.6,21.3,9.2,30.1&#10;&#9;&#9;&#9;c-0.5,8.3-0.5,12.9,4.4,17.8c4.9,4.9,9.5,4.9,17.8,4.4c8.9-0.5,19.9-1.1,30.1,9.2c10.2,10.2,9.6,21.3,9.2,30.1&#10;&#9;&#9;&#9;c-0.5,8.3-0.5,12.9,4.4,17.8c4.9,4.9,9.5,4.9,17.8,4.4c8.9-0.5,19.9-1.1,30.1,9.2l-11.4,11.4c-4.9-4.9-9.5-4.9-17.8-4.4&#10;&#9;&#9;&#9;C1805.3,785.3,1794.3,785.9,1784,775.7z" transform="matrix(1, 0, 0, 1, 0, 0)"/><path fill="#FFCC4E" d="M1471.1,1594.8c-10.2-10.2-9.6-21.3-9.2-30.1c0.5-8.3,0.5-12.9-4.4-17.8c-4.9-4.9-9.5-4.9-17.8-4.4&#10;&#9;&#9;&#9;c-8.9,0.5-19.9,1.1-30.1-9.2s-9.6-21.3-9.2-30.1c0.5-8.3,0.5-12.9-4.4-17.8l11.4-11.4c10.2,10.2,9.6,21.3,9.2,30.1&#10;&#9;&#9;&#9;c-0.5,8.3-0.5,12.9,4.4,17.8c4.9,4.9,9.5,4.9,17.8,4.4c8.9-0.5,19.9-1.1,30.1,9.2c10.2,10.2,9.6,21.3,9.2,30.1&#10;&#9;&#9;&#9;c-0.5,8.3-0.5,12.9,4.4,17.8c4.9,4.9,9.5,4.9,17.8,4.4c8.9-0.5,19.9-1.1,30.1,9.2l-11.4,11.4c-4.9-4.9-9.5-4.9-17.8-4.4&#10;&#9;&#9;&#9;C1492.4,1604.4,1481.3,1605,1471.1,1594.8z" transform="matrix(1, 0, 0, 1, 0, 0)"/><path fill="#00A5D3" d="M2490.4,1710.4c10.2,10.2,9.6,21.3,9.2,30.1c-0.5,8.3-0.5,12.9,4.4,17.8c4.9,4.9,9.5,4.9,17.8,4.4&#10;&#9;&#9;&#9;c8.9-0.5,19.9-1.1,30.1,9.2s9.6,21.3,9.2,30.1c-0.5,8.3-0.5,12.9,4.4,17.8l-11.4,11.4c-10.2-10.2-9.6-21.3-9.2-30.1&#10;&#9;&#9;&#9;c0.5-8.3,0.5-12.9-4.4-17.8c-4.9-4.9-9.5-4.9-17.8-4.4c-8.9,0.5-19.9,1.1-30.1-9.2c-10.2-10.2-9.6-21.3-9.2-30.1&#10;&#9;&#9;&#9;c0.5-8.3,0.5-12.9-4.4-17.8c-4.9-4.9-9.5-4.9-17.8-4.4c-8.9,0.5-19.9,1.1-30.1-9.2l11.4-11.4c4.9,4.9,9.5,4.9,17.8,4.4&#10;&#9;&#9;&#9;C2469.2,1700.7,2480.2,1700.1,2490.4,1710.4z" transform="matrix(1, 0, 0, 1, 0, 0)"/><path fill="#00A188" d="M1084.2,130.2c10.2,10.2,9.6,21.3,9.2,30.1c-0.5,8.3-0.5,12.9,4.4,17.8c4.9,4.9,9.5,4.9,17.8,4.4&#10;&#9;&#9;&#9;c8.9-0.5,19.9-1.1,30.1,9.2s9.6,21.3,9.2,30.1c-0.5,8.3-0.5,12.9,4.4,17.8l-11.4,11.4c-10.2-10.2-9.6-21.3-9.2-30.1&#10;&#9;&#9;&#9;c0.5-8.3,0.5-12.9-4.4-17.8c-4.9-4.9-9.5-4.9-17.8-4.4c-8.9,0.5-19.9,1.1-30.1-9.2c-10.2-10.2-9.6-21.3-9.2-30.1&#10;&#9;&#9;&#9;c0.5-8.3,0.5-12.9-4.4-17.8c-4.9-4.9-9.5-4.9-17.8-4.4c-8.9,0.5-19.9,1.1-30.1-9.2l11.4-11.4c4.9,4.9,9.5,4.9,17.8,4.4&#10;&#9;&#9;&#9;C1062.9,120.6,1073.9,119.9,1084.2,130.2z" transform="matrix(1, 0, 0, 1, 0, 0)"/>
</svg>